<svg xmlns="http://www.w3.org/2000/svg" xml:space="preserve" width="512" height="512" viewBox="0 0 135.5 135.5">
  <g style="fill:#fff;fill-opacity:1">
    <g style="fill:#fff;fill-opacity:1">
      <path d="M75.5 39.5c-1.8-.4-1.8-.3-.4-2.2 1.6-2.3 2.4-3.2 5.6-6.7a36 36 0 0 0 6.5-8.2l-1.2.8-3 2.4A41.5 41.5 0 0 0 71.9 37l-.3.5-.5-1c-3.4-5.8-.7-12.9 6.7-17.6l3.3-2.2c3.3-2.1 6-4.7 7-6.5l.2-.4.4.5c9 13.2.4 32.2-13.1 29.2zM83 75.7c-2.4-.4-5-1.6-7.3-3-1.5-1.1-1.5-1-.4-2.7C80.7 61.8 88 58.9 97 61.5c2.7.7 5.2 1 6.5.6l.8-.3-2.8-1a54.2 54.2 0 0 0-7.7-2.7L93 58l1.5-.8c4.4-2.4 8.3-6.7 6.8-7.6-.4-.3-.5-.3-2 1.1-2.6 2.5-5.9 4.4-9.1 5.3l-1.4.3c-6 2.2-7 2.7-7.1 2.8-3 2-4.3 2.9-5.9 4.5l-.8.9-.3-1.6c-1.2-9 4.4-17.9 13.7-21.6 2.1-.8 3.6-1.2 9.6-2.5 9.8-2 13.4-3.4 17.9-7 1.8-1.5 1.7-1.8 1.6 4.4-.5 25-16 42.9-34.3 39.5zM46.6 76c-14-1-24.7-13.4-28-32-.3-2-.6-13.4-.3-13.4l1.2.9c4.3 3.6 8.7 5.4 18.1 7.2a54 54 0 0 1 9 2.4c10 3.7 16 13.4 14.1 22.5l-.2 1-1.3-1.4a40.1 40.1 0 0 0-6.5-4.8A19 19 0 0 1 44 47c-1.6-4.3-2.1-4.9-2.1-2.2 0 3.1 1.8 7.8 4.1 10.7l.8 1-1.1-.5c-5-2-7.1-3.1-9.5-5.5-1.4-1.3-1.4-1.3-1.9-1-1.5.9 2.5 5.4 6.7 7.7 1.3.7.8.6 1.4 1C50.8 62.2 55 62.8 60 69.6c1.4 2 1.4 1.8-.4 3a19.3 19.3 0 0 1-13 3.3z" style="font-variation-settings:normal;opacity:1;vector-effect:none;fill:#fff;fill-opacity:1;stroke-width:2.40151;stroke-linecap:butt;stroke-linejoin:miter;stroke-miterlimit:4;stroke-dasharray:none;stroke-dashoffset:0;stroke-opacity:1;-inkscape-stroke:none;stop-color:#000;stop-opacity:1" transform="matrix(.8234 0 0 .8234 12 5.2)"/>
      <path d="M66.3 87.1c-3-6.8-3.3-12.6-.7-23.6 2-9 1.6-13.8-2-20.8a42.5 42.5 0 0 0-13.3-15.8c-2.2-2 .5 1.6 4.7 6 6 6.4 6.1 6.6 2.6 6.7-10.7.5-17-12.2-11.5-22.8 1-2 1.1-2 1.8-1 1.6 2.5 3.8 4 8 5.7 8.4 3.4 11.3 7.9 8.6 13.8l-.5 1 1.2 1.7c6.3 8.4 7.3 14 4.7 27-1.9 9.4-1.8 13.8.3 20l.7 2.2-3.9 1.2-.7-1.3z" style="font-variation-settings:normal;opacity:1;vector-effect:none;fill:#fff;fill-opacity:1;stroke-width:2.40151;stroke-linecap:butt;stroke-linejoin:miter;stroke-miterlimit:4;stroke-dasharray:none;stroke-dashoffset:0;stroke-opacity:1;-inkscape-stroke:none;stop-color:#000;stop-opacity:1" transform="matrix(.8234 0 0 .8234 12 5.2)"/>
    </g>
    <g style="fill:#fff;fill-opacity:1">
      <path d="m71 110.1.6-1.7C76.5 93 96.5 81.8 122 80l2.8-.2h1.1v2.4c0 2.1 0 2.4-.3 2.4a72.3 72.3 0 0 0-42.9 13A76.3 76.3 0 0 0 71 110.1zM64.3 110.1l-1.3-1.9A62 62 0 0 0 15 85l-3.8-.2-1.5-.2-.2-2.1c-.1-2.8-.4-2.6 3-2.4 23 1 41.4 10 49.6 24.2a23.1 23.1 0 0 1 2.2 5.8z" style="font-variation-settings:normal;opacity:1;vector-effect:none;fill:#fff;fill-opacity:1;stroke-width:2.40151;stroke-linecap:butt;stroke-linejoin:miter;stroke-miterlimit:4;stroke-dasharray:none;stroke-dashoffset:0;stroke-opacity:1;-inkscape-stroke:none;stop-color:#000;stop-opacity:1" transform="matrix(1.0002 0 0 1.0002 0 -3.5)"/>
      <path d="M65.7 125.4c-2.4-.5-4.5-2.1-6.8-5.4-8.3-12.1-29.5-15.3-52.5-8-1.4.5-2.6.8-2.7.7-.2-.2-2.4-7.2-2.2-7.3a69.3 69.3 0 0 1 40.8-3c.8.1-2.7-1.4-4.9-2.2a58.5 58.5 0 0 0-28.8-.9v-10h.6c3-.5 11 0 16.6 1.1 16.8 3.3 33 13.4 38.6 24l.7 1.4h5.4l.8-1.4C77.1 103.6 90.1 95 107.2 91c6-1.5 15.6-2.3 19.2-1.8l.7.2-.1 4.9c-.2 5.7 0 5.1-1.8 4.8a60 60 0 0 0-27.5 1.2c-3 1-7.1 2.8-4.7 2.2a71.7 71.7 0 0 1 26.4-1c5.9 1 14.9 3.5 14.6 4.2l-2.1 6.9c0 .3-.2.3-2.7-.5-22.5-7.3-44.3-4.3-52.2 7.3-3.7 5.4-6.5 7-11.3 6z" style="font-variation-settings:normal;opacity:1;vector-effect:none;fill:#fff;fill-opacity:1;stroke-width:2.40151;stroke-linecap:butt;stroke-linejoin:miter;stroke-miterlimit:4;stroke-dasharray:none;stroke-dashoffset:0;stroke-opacity:1;-inkscape-stroke:none;stop-color:#000;stop-opacity:1" transform="matrix(1.0002 0 0 1.0002 0 -3.5)"/>
      <path d="M64.8 103.2c-7.5-14.5-27.3-24.7-52.4-26.9l-2.5-.2-.1-1.1c-.2-1.3-.2-4 0-4 .2-.3 6 .7 9.6 1.6C45.6 79 62 89.6 65 101.9c.6 2.5.6 3-.3 1.3zM70.1 103.8c1.5-12.9 18-24.2 45.4-31 3.8-1 10-2 10.3-1.9.3.2.2 5 0 5.2l-2.7.2a83.3 83.3 0 0 0-40.7 13.5 42 42 0 0 0-12.1 14.3l-.3.7z" style="font-variation-settings:normal;opacity:1;vector-effect:none;fill:#fff;fill-opacity:1;stroke-width:2.40151;stroke-linecap:butt;stroke-linejoin:miter;stroke-miterlimit:4;stroke-dasharray:none;stroke-dashoffset:0;stroke-opacity:1;-inkscape-stroke:none;stop-color:#000;stop-opacity:1" transform="matrix(1.0002 0 0 1.0002 0 -3.5)"/>
    </g>
  </g>
</svg>