<?xml version="1.0" encoding="UTF-8" standalone="no"?>
<svg
   xml:space="preserve"
   width="2615"
   height="512"
   viewBox="0 0 692.05635 135.5"
   version="1.1"
   id="svg6"
   sodipodi:docname="logo_blue_large.svg"
   inkscape:version="1.4 (86a8ad7, 2024-10-11)"
   inkscape:export-filename="logo_blue_large.jpg"
   inkscape:export-xdpi="58.738049"
   inkscape:export-ydpi="58.738049"
   xmlns:inkscape="http://www.inkscape.org/namespaces/inkscape"
   xmlns:sodipodi="http://sodipodi.sourceforge.net/DTD/sodipodi-0.dtd"
   xmlns="http://www.w3.org/2000/svg"
   xmlns:svg="http://www.w3.org/2000/svg"><defs
   id="defs6" /><sodipodi:namedview
   id="namedview6"
   pagecolor="#ffffff"
   bordercolor="#000000"
   borderopacity="0.25"
   inkscape:showpageshadow="2"
   inkscape:pageopacity="0.0"
   inkscape:pagecheckerboard="0"
   inkscape:deskcolor="#d1d1d1"
   inkscape:zoom="0.39404298"
   inkscape:cx="1282.855"
   inkscape:cy="442.8451"
   inkscape:window-width="1920"
   inkscape:window-height="1009"
   inkscape:window-x="-8"
   inkscape:window-y="-8"
   inkscape:window-maximized="1"
   inkscape:current-layer="svg6" />
  <rect
   style="fill:#e3e5f4;fill-opacity:1;stroke-width:2.99793921;stroke-dasharray:none;stroke:#3b4997;stroke-opacity:1"
   id="rect1"
   width="685.72772"
   height="127.60849"
   x="3.1641452"
   y="3.9457886"
   ry="32.909557" /><g
   style="fill:#3b4997;fill-opacity:1"
   id="g6"
   transform="matrix(0.85627589,0,0,0.85627589,48.703279,8.3589427)">
    <g
   style="fill:#3b4997;fill-opacity:1"
   id="g2">
      <path
   d="m 75.5,39.5 c -1.8,-0.4 -1.8,-0.3 -0.4,-2.2 1.6,-2.3 2.4,-3.2 5.6,-6.7 a 36,36 0 0 0 6.5,-8.2 L 86,23.2 83,25.6 A 41.5,41.5 0 0 0 71.9,37 l -0.3,0.5 -0.5,-1 C 67.7,30.7 70.4,23.6 77.8,18.9 l 3.3,-2.2 c 3.3,-2.1 6,-4.7 7,-6.5 l 0.2,-0.4 0.4,0.5 c 9,13.2 0.4,32.2 -13.1,29.2 z M 83,75.7 c -2.4,-0.4 -5,-1.6 -7.3,-3 -1.5,-1.1 -1.5,-1 -0.4,-2.7 5.4,-8.2 12.7,-11.1 21.7,-8.5 2.7,0.7 5.2,1 6.5,0.6 l 0.8,-0.3 -2.8,-1 A 54.2,54.2 0 0 0 93.8,58.1 L 93,58 94.5,57.2 c 4.4,-2.4 8.3,-6.7 6.8,-7.6 -0.4,-0.3 -0.5,-0.3 -2,1.1 -2.6,2.5 -5.9,4.4 -9.1,5.3 l -1.4,0.3 c -6,2.2 -7,2.7 -7.1,2.8 -3,2 -4.3,2.9 -5.9,4.5 L 75,64.5 74.7,62.9 c -1.2,-9 4.4,-17.9 13.7,-21.6 2.1,-0.8 3.6,-1.2 9.6,-2.5 9.8,-2 13.4,-3.4 17.9,-7 1.8,-1.5 1.7,-1.8 1.6,4.4 -0.5,25 -16,42.9 -34.3,39.5 z M 46.6,76 C 32.6,75 21.9,62.6 18.6,44 18.3,42 18,30.6 18.3,30.6 l 1.2,0.9 c 4.3,3.6 8.7,5.4 18.1,7.2 a 54,54 0 0 1 9,2.4 c 10,3.7 16,13.4 14.1,22.5 l -0.2,1 -1.3,-1.4 A 40.1,40.1 0 0 0 52.7,58.4 19,19 0 0 1 44,47 c -1.6,-4.3 -2.1,-4.9 -2.1,-2.2 0,3.1 1.8,7.8 4.1,10.7 l 0.8,1 -1.1,-0.5 c -5,-2 -7.1,-3.1 -9.5,-5.5 -1.4,-1.3 -1.4,-1.3 -1.9,-1 -1.5,0.9 2.5,5.4 6.7,7.7 1.3,0.7 0.8,0.6 1.4,1 8.4,4 12.6,4.6 17.6,11.4 1.4,2 1.4,1.8 -0.4,3 a 19.3,19.3 0 0 1 -13,3.3 z"
   style="font-variation-settings:normal;opacity:1;vector-effect:none;fill-opacity:1;stroke-width:2.40151;stroke-linecap:butt;stroke-linejoin:miter;stroke-miterlimit:4;stroke-dasharray:none;stroke-dashoffset:0;stroke-opacity:1;-inkscape-stroke:none;stop-color:#000000;stop-opacity:1"
   transform="matrix(0.8234,0,0,0.8234,12,5.2)"
   id="path1" />
      <path
   d="m 66.3,87.1 c -3,-6.8 -3.3,-12.6 -0.7,-23.6 2,-9 1.6,-13.8 -2,-20.8 A 42.5,42.5 0 0 0 50.3,26.9 c -2.2,-2 0.5,1.6 4.7,6 6,6.4 6.1,6.6 2.6,6.7 -10.7,0.5 -17,-12.2 -11.5,-22.8 1,-2 1.1,-2 1.8,-1 1.6,2.5 3.8,4 8,5.7 8.4,3.4 11.3,7.9 8.6,13.8 l -0.5,1 1.2,1.7 c 6.3,8.4 7.3,14 4.7,27 -1.9,9.4 -1.8,13.8 0.3,20 l 0.7,2.2 -3.9,1.2 z"
   style="font-variation-settings:normal;opacity:1;vector-effect:none;fill-opacity:1;stroke-width:2.40151;stroke-linecap:butt;stroke-linejoin:miter;stroke-miterlimit:4;stroke-dasharray:none;stroke-dashoffset:0;stroke-opacity:1;-inkscape-stroke:none;stop-color:#000000;stop-opacity:1"
   transform="matrix(0.8234,0,0,0.8234,12,5.2)"
   id="path2" />
    </g>
    <g
   style="fill:#3b4997;fill-opacity:1"
   id="g5">
      <path
   d="m 71,110.1 0.6,-1.7 C 76.5,93 96.5,81.8 122,80 l 2.8,-0.2 h 1.1 v 2.4 c 0,2.1 0,2.4 -0.3,2.4 A 72.3,72.3 0 0 0 82.7,97.6 76.3,76.3 0 0 0 71,110.1 Z m -6.7,0 -1.3,-1.9 A 62,62 0 0 0 15,85 L 11.2,84.8 9.7,84.6 9.5,82.5 c -0.1,-2.8 -0.4,-2.6 3,-2.4 23,1 41.4,10 49.6,24.2 a 23.1,23.1 0 0 1 2.2,5.8 z"
   style="font-variation-settings:normal;opacity:1;vector-effect:none;fill-opacity:1;stroke-width:2.40151;stroke-linecap:butt;stroke-linejoin:miter;stroke-miterlimit:4;stroke-dasharray:none;stroke-dashoffset:0;stroke-opacity:1;-inkscape-stroke:none;stop-color:#000000;stop-opacity:1"
   transform="matrix(1.0002,0,0,1.0002,0,-3.5)"
   id="path3" />
      <path
   d="m 65.7,125.4 c -2.4,-0.5 -4.5,-2.1 -6.8,-5.4 -8.3,-12.1 -29.5,-15.3 -52.5,-8 -1.4,0.5 -2.6,0.8 -2.7,0.7 -0.2,-0.2 -2.4,-7.2 -2.2,-7.3 a 69.3,69.3 0 0 1 40.8,-3 c 0.8,0.1 -2.7,-1.4 -4.9,-2.2 A 58.5,58.5 0 0 0 8.6,99.3 v -10 h 0.6 c 3,-0.5 11,0 16.6,1.1 16.8,3.3 33,13.4 38.6,24 l 0.7,1.4 h 5.4 l 0.8,-1.4 C 77.1,103.6 90.1,95 107.2,91 c 6,-1.5 15.6,-2.3 19.2,-1.8 l 0.7,0.2 -0.1,4.9 c -0.2,5.7 0,5.1 -1.8,4.8 a 60,60 0 0 0 -27.5,1.2 c -3,1 -7.1,2.8 -4.7,2.2 a 71.7,71.7 0 0 1 26.4,-1 c 5.9,1 14.9,3.5 14.6,4.2 l -2.1,6.9 c 0,0.3 -0.2,0.3 -2.7,-0.5 -22.5,-7.3 -44.3,-4.3 -52.2,7.3 -3.7,5.4 -6.5,7 -11.3,6 z"
   style="font-variation-settings:normal;opacity:1;vector-effect:none;fill:#3b4997;fill-opacity:1;stroke-width:2.40151;stroke-linecap:butt;stroke-linejoin:miter;stroke-miterlimit:4;stroke-dasharray:none;stroke-dashoffset:0;stroke-opacity:1;-inkscape-stroke:none;stop-color:#000000;stop-opacity:1"
   transform="matrix(1.0002,0,0,1.0002,0,-3.5)"
   id="path4" />
      <path
   d="M 64.8,103.2 C 57.3,88.7 37.5,78.5 12.4,76.3 L 9.9,76.1 9.8,75 c -0.2,-1.3 -0.2,-4 0,-4 0.2,-0.3 6,0.7 9.6,1.6 26.2,6.4 42.6,17 45.6,29.3 0.6,2.5 0.6,3 -0.3,1.3 z m 5.3,0.6 c 1.5,-12.9 18,-24.2 45.4,-31 3.8,-1 10,-2 10.3,-1.9 0.3,0.2 0.2,5 0,5.2 l -2.7,0.2 A 83.3,83.3 0 0 0 82.4,89.8 42,42 0 0 0 70.3,104.1 l -0.3,0.7 z"
   style="font-variation-settings:normal;opacity:1;vector-effect:none;fill-opacity:1;stroke-width:2.40151;stroke-linecap:butt;stroke-linejoin:miter;stroke-miterlimit:4;stroke-dasharray:none;stroke-dashoffset:0;stroke-opacity:1;-inkscape-stroke:none;stop-color:#000000;stop-opacity:1"
   transform="matrix(1.0002,0,0,1.0002,0,-3.5)"
   id="path5" />
    </g>
  </g>
<text
   xml:space="preserve"
   style="font-size:62.9393px;font-variation-settings:normal;text-align:start;writing-mode:lr-tb;direction:ltr;text-anchor:start;opacity:1;vector-effect:none;fill:#3b4997;fill-opacity:1;stroke-width:2.78698;stroke-linecap:butt;stroke-linejoin:miter;stroke-miterlimit:4;stroke-dasharray:none;stroke-dashoffset:0;stroke-opacity:1;-inkscape-stroke:none;stop-color:#000000;stop-opacity:1"
   x="172.5219"
   y="65.725449"
   id="text6"><tspan
     sodipodi:role="line"
     id="tspan6"
     style="font-style:normal;font-variant:normal;font-weight:normal;font-stretch:normal;font-size:62.9393px;font-family:Rockwell;-inkscape-font-specification:Rockwell;font-variation-settings:normal;vector-effect:none;fill:#3b4997;fill-opacity:1;stroke-width:2.78698;stroke-linecap:butt;stroke-linejoin:miter;stroke-miterlimit:4;stroke-dasharray:none;stroke-dashoffset:0;stroke-opacity:1;-inkscape-stroke:none;stop-color:#000000;stop-opacity:1"
     x="172.5219"
     y="65.725449">LinguaNabanga</tspan></text><text
   xml:space="preserve"
   style="font-size:41.3599px;font-variation-settings:normal;text-align:start;writing-mode:lr-tb;direction:ltr;text-anchor:start;opacity:1;vector-effect:none;fill:#3b4997;fill-opacity:1;stroke-width:1.83144;stroke-linecap:butt;stroke-linejoin:miter;stroke-miterlimit:4;stroke-dasharray:none;stroke-dashoffset:0;stroke-opacity:1;-inkscape-stroke:none;stop-color:#000000;stop-opacity:1"
   x="476.91486"
   y="115.19564"
   id="text7"><tspan
     sodipodi:role="line"
     id="tspan7"
     style="font-style:normal;font-variant:normal;font-weight:normal;font-stretch:normal;font-size:41.3599px;font-family:Rockwell;-inkscape-font-specification:Rockwell;font-variation-settings:normal;vector-effect:none;fill:#3b4997;fill-opacity:1;stroke-width:1.83144;stroke-linecap:butt;stroke-linejoin:miter;stroke-miterlimit:4;stroke-dasharray:none;stroke-dashoffset:0;stroke-opacity:1;-inkscape-stroke:none;stop-color:#000000;stop-opacity:1"
     x="476.91486"
     y="115.19564">Vanuatu</tspan></text></svg>
